<svg version="1.1" id="Layer_1" xmlns="http://www.w3.org/2000/svg" xmlns:xlink="http://www.w3.org/1999/xlink" x="0px" y="0px"
	 width="100%" viewBox="0 0 220 147" enable-background="new 0 0 220 147" xml:space="preserve">
<path fill="#000000" opacity="1.000000" stroke="none" 
	d="
M1.000000,50.000000 
	C1.000000,33.689159 1.000000,17.378321 1.000000,1.033741 
	C74.209839,1.033741 147.419693,1.033741 221.000000,1.033741 
	C221.000000,17.018991 221.000000,33.040836 220.531342,49.531342 
	C147.041794,50.000000 74.020897,50.000000 1.000000,50.000000 
z"/>
<path fill="#DD0000" opacity="1.000000" stroke="none" 
	d="
M1.000000,50.468658 
	C74.020897,50.000000 147.041794,50.000000 220.531342,50.000000 
	C221.000000,66.020897 221.000000,82.041786 220.531342,98.531342 
	C147.041794,99.000000 74.020897,99.000000 1.000000,99.000000 
	C1.000000,82.979103 1.000000,66.958214 1.000000,50.468658 
z"/>
<path fill="#FFCE00" opacity="1.000000" stroke="none" 
	d="
M1.000000,99.468658 
	C74.020897,99.000000 147.041794,99.000000 220.531342,99.000000 
	C221.000000,115.310844 221.000000,131.621689 221.000000,147.966263 
	C147.790161,147.966263 74.580315,147.966263 1.000000,147.966263 
	C1.000000,131.981003 1.000000,115.959160 1.000000,99.468658 
z"/>
</svg>