<svg version="1.1" id="Layer_1" xmlns="http://www.w3.org/2000/svg" xmlns:xlink="http://www.w3.org/1999/xlink" x="0px" y="0px"
	 width="100%" viewBox="0 0 288 175" enable-background="new 0 0 288 175" xml:space="preserve">
<path fill="#032969" opacity="1.000000" stroke="none" 
	d="
M1.000000,94.000000 
	C1.000000,63.060383 1.000000,32.120766 1.000000,1.000000 
	C44.687393,1.000000 88.375038,1.000000 132.440002,1.447996 
	C132.867462,5.486837 132.917603,9.077682 132.853943,13.144125 
	C132.815384,17.181801 132.890610,20.743877 132.889633,24.742458 
	C132.857025,28.794226 132.900604,32.409489 132.834885,36.470634 
	C132.805008,40.563721 132.884445,44.210922 132.911926,48.140717 
	C132.890839,48.612286 132.921722,48.801266 132.878510,49.436573 
	C132.853806,52.591850 132.903198,55.300800 132.906097,58.293701 
	C132.894089,58.766342 132.928604,58.955032 132.875275,59.588123 
	C132.851151,63.678017 132.914856,67.323509 132.931519,71.227592 
	C132.912643,71.658981 132.940857,71.831787 132.891785,72.453781 
	C132.859940,76.203583 132.905396,79.504196 132.841492,83.264954 
	C132.700562,87.159500 132.668976,90.593918 132.192505,94.063721 
	C118.273018,94.121727 104.798363,94.176140 91.323792,94.160492 
	C61.215839,94.125542 31.107927,94.055656 1.000000,94.000000 
M52.315552,83.179283 
	C53.985199,82.160942 55.654842,81.142601 57.268204,80.158592 
	C58.922245,81.149239 60.461319,82.071037 62.223381,83.396225 
	C62.373775,83.261284 62.524170,83.126343 62.674568,82.991409 
	C62.427399,83.033524 62.180225,83.075638 62.634453,82.584679 
	C62.126331,80.854828 61.618206,79.124977 61.107586,77.386627 
	C62.729412,76.017670 64.241562,74.741287 65.753708,73.464897 
	C60.354473,74.320251 58.230495,71.598709 57.507469,66.035019 
	C56.197678,69.087631 55.332100,71.104958 54.421452,73.227325 
	C52.322693,73.227325 50.608337,73.227325 47.317913,73.227325 
	C53.189331,75.598473 53.728172,78.823341 51.841164,83.044380 
	C51.841164,83.044380 51.939938,83.117264 51.939938,83.117264 
	C51.939938,83.117264 51.695053,82.736198 52.315552,83.179283 
M14.827177,28.977859 
	C16.160999,28.080706 17.494822,27.183554 18.840319,26.278547 
	C20.654787,27.532660 22.202879,28.602663 24.864828,30.442532 
	C22.011824,25.102375 23.101957,21.676376 28.939785,18.992306 
	C25.267868,18.992306 23.306541,18.992306 21.335777,18.992306 
	C20.447573,16.837126 19.647144,14.894927 18.668945,12.521380 
	C17.771404,15.013454 17.068575,16.964907 16.280720,19.152435 
	C14.185127,19.152435 12.295528,19.152435 9.475557,19.152435 
	C11.839122,21.027758 13.457646,22.311941 14.914084,23.467524 
	C14.414888,25.379959 13.998417,26.975477 13.248731,28.954430 
	C13.289326,29.197575 13.329921,29.440718 13.370516,29.683863 
	C13.610269,29.487778 13.850021,29.291695 14.827177,28.977859 
M62.058781,28.587563 
	C62.274307,28.596704 62.489834,28.605844 62.705360,28.614986 
	C62.612629,28.267076 62.519901,27.919167 62.328442,26.852051 
	C61.926754,25.431808 61.525070,24.011568 61.101933,22.515486 
	C62.794117,21.196947 64.426857,19.924725 66.947556,17.960609 
	C63.707790,17.960609 61.625023,17.960609 59.561668,17.960609 
	C58.829212,15.866665 58.209637,14.095430 57.186127,11.169436 
	C56.144226,16.821560 53.406239,18.995035 48.367439,18.236208 
	C51.844650,20.735128 54.171703,23.450623 51.336384,28.704390 
	C54.214375,27.199743 55.871910,26.333164 57.365253,25.552427 
	C59.054409,26.500559 60.480206,27.300865 62.058781,28.587563 
M33.751556,43.844254 
	C36.852402,40.351345 40.101627,42.112522 43.826767,44.298534 
	C43.033321,41.664688 42.479439,39.826065 41.936192,38.022751 
	C43.630901,36.562176 45.156921,35.246983 46.682941,33.931789 
	C41.368328,34.706852 39.474422,31.327734 37.357254,26.943630 
	C38.702648,34.772087 31.196779,30.556868 28.944105,34.449383 
	C34.240395,35.817108 34.320187,39.205997 32.753361,43.221672 
	C32.642937,43.504681 33.119774,44.016823 33.043934,44.252350 
	C33.124439,44.312599 33.204945,44.372845 33.751556,43.844254 
M114.607582,40.002365 
	C116.306290,40.939404 118.004997,41.876442 120.643463,43.331875 
	C117.772400,38.274647 119.838623,35.191677 123.675827,32.494278 
	C118.142212,33.819866 116.237465,30.420033 114.474319,26.225044 
	C114.313583,31.938639 110.148247,32.297371 105.822624,32.854675 
	C107.891655,34.542439 109.405281,35.777145 111.072098,37.136810 
	C110.346085,39.004173 109.673332,40.734535 109.000572,42.464897 
	C109.257416,42.719418 109.514259,42.973938 109.771103,43.228455 
	C111.161224,42.260220 112.551346,41.291988 114.607582,40.002365 
M70.148735,32.387390 
	C69.429543,32.387390 68.710342,32.387390 67.991150,32.387390 
	C72.975517,34.917889 72.608734,38.765678 70.636269,43.660133 
	C73.151154,41.992409 74.780731,40.911774 76.428947,39.818771 
	C78.185211,40.926399 79.833275,41.965786 82.956215,43.935333 
	C79.169853,38.426510 81.334030,35.383793 85.202026,32.290596 
	C78.788994,34.593647 77.914429,30.172966 76.943565,27.324715 
	C74.991196,28.954256 72.935257,30.670244 70.148735,32.387390 
M75.372574,56.243137 
	C75.267296,61.539066 70.565071,59.594269 67.668480,60.502937 
	C69.295349,62.343567 71.148415,63.604149 71.682449,65.284050 
	C72.196434,66.900810 71.346344,68.951210 71.036423,71.249931 
	C73.109222,69.885262 74.757980,68.799759 76.439621,67.692619 
	C78.203926,68.797318 79.882164,69.848129 81.560394,70.898941 
	C78.542900,65.818504 82.029373,63.177483 86.294640,59.889652 
	C80.847046,60.709358 77.433090,60.262989 77.020699,55.230331 
	C76.569046,55.337921 76.117401,55.445511 75.372574,56.243137 
M29.494141,61.020973 
	C31.004797,62.260063 32.515453,63.499153 33.994484,64.712303 
	C33.669891,66.497406 33.370068,68.146309 33.199741,69.083023 
	C36.700066,69.333260 39.819092,69.556236 43.105022,69.791145 
	C42.842106,68.588470 42.434227,66.722679 42.014351,64.801994 
	C43.601429,63.462616 45.164898,62.143166 47.831917,59.892399 
	C41.877617,61.123112 39.133846,59.090000 38.020668,54.187054 
	C36.989811,59.371475 33.704533,60.491100 29.494141,61.020973 
M116.014503,57.704178 
	C115.596245,56.928116 115.177994,56.152054 114.343407,54.603512 
	C113.869255,60.292595 110.691360,61.587299 105.289291,61.065739 
	C107.778824,63.161774 109.356415,64.490005 110.868240,65.762871 
	C110.314964,67.924400 109.817429,69.868164 108.913376,73.400116 
	C113.029411,68.338326 116.412766,68.326324 120.513344,72.791595 
	C119.774933,69.661446 119.332596,67.786362 118.861687,65.790169 
	C120.435081,64.440231 121.991737,63.104652 122.948479,62.283783 
	C120.620033,60.954773 118.413467,59.695324 116.014503,57.704178 
M94.854118,25.824780 
	C96.839203,26.661848 98.824287,27.498915 101.251770,28.522532 
	C98.853371,24.124720 99.965721,20.729717 104.618874,18.171965 
	C98.961487,19.486414 96.675240,16.602501 95.487335,11.751413 
	C95.067139,17.490007 91.740913,18.849463 85.856972,17.856426 
	C88.561554,19.978693 90.200790,21.264994 91.748833,22.479733 
	C91.177124,24.671442 90.657303,26.664227 89.990425,29.220757 
	C91.776497,27.941677 92.985214,27.076067 94.854118,25.824780 
M55.999996,53.945240 
	C57.975803,54.454857 59.951614,54.964470 62.228630,55.551777 
	C61.893970,53.800190 61.565018,52.078457 61.240406,50.379444 
	C62.756535,49.062309 64.238686,47.774689 66.121666,46.138851 
	C63.365730,45.980778 61.404663,45.868294 59.550331,45.761936 
	C58.818184,43.710274 58.192242,41.956234 57.963425,41.315029 
	C54.789711,43.208763 51.769218,45.011070 48.632267,46.882870 
	C52.676254,48.687820 53.912636,51.641331 50.959393,56.956825 
	C53.458668,55.475533 54.383614,54.927326 55.999996,53.945240 
M92.916893,72.760574 
	C91.006744,72.893509 89.096588,73.026436 86.654556,73.196388 
	C88.692169,74.845551 90.312729,76.157166 91.775391,77.340981 
	C91.174706,79.527863 90.647377,81.447685 89.954041,83.971916 
	C92.220673,82.401146 93.854233,81.269096 95.479935,80.142494 
	C97.141968,81.085892 98.759590,82.004082 101.820122,83.741295 
	C98.259338,78.147301 100.754501,75.572380 105.390579,72.998337 
	C102.092293,72.998337 100.155609,72.998337 98.210129,72.998337 
	C97.345345,70.775787 96.576897,68.800812 95.578743,66.235489 
	C94.732651,68.629196 94.098396,70.423576 92.916893,72.760574 
M92.179855,45.955761 
	C90.485649,45.955761 88.791443,45.955761 86.057762,45.955761 
	C88.637093,47.910225 90.195343,49.090973 91.809265,50.313904 
	C91.212898,52.416843 90.645477,54.417736 89.929855,56.941235 
	C92.182152,55.468132 93.931190,54.324177 95.622108,53.218243 
	C97.287231,54.206017 98.815498,55.112602 100.343765,56.019188 
	C97.146690,50.919830 101.545929,48.907055 104.611450,46.123459 
	C102.030914,46.002682 100.067177,45.910770 98.119270,45.819603 
	C97.275208,43.702885 96.497208,41.751842 95.654976,39.639721 
	C94.651245,41.897888 93.789909,43.835720 92.179855,45.955761 
M19.439356,40.866589 
	C18.302021,42.357536 17.164684,43.848484 15.634629,45.854248 
	C14.378640,45.927231 12.374156,46.043701 9.645254,46.202267 
	C11.920527,47.980976 13.457854,49.182789 14.976344,50.369877 
	C14.356200,52.286446 13.792876,54.027412 12.882545,56.840813 
	C15.484976,55.269627 17.110056,54.288506 18.875795,53.222462 
	C20.487909,54.326153 22.118822,55.442711 25.034586,57.438904 
	C21.827219,51.902622 23.256126,48.630417 28.754801,45.926338 
	C25.183491,45.926338 23.206829,45.926338 21.181232,45.926338 
	C20.667557,44.316788 20.215328,42.899776 19.439356,40.866589 
M13.591138,72.975067 
	C12.542584,72.975067 11.494031,72.975067 9.336745,72.975067 
	C11.849628,74.859055 13.394537,76.017326 15.074175,77.276604 
	C14.409944,79.166260 13.794427,80.917328 12.814347,83.705528 
	C15.501595,82.147224 17.251104,81.132706 18.877289,80.189697 
	C20.588669,81.213913 22.052795,82.090149 24.783325,83.724297 
	C21.840494,78.406418 23.398975,75.494492 27.145679,73.066101 
	C25.241163,73.066101 23.336647,73.066101 21.415602,73.066101 
	C20.487452,70.801262 19.672071,68.811592 19.136753,67.505325 
	C17.483599,69.409294 15.936225,71.191429 13.591138,72.975067 
z"/>
<path fill="#BF0A30" opacity="1.000000" stroke="none" 
	d="
M289.000000,164.000000 
	C289.000000,167.994110 289.000000,171.988235 289.000000,175.976715 
	C193.000000,175.971069 96.999992,175.971069 1.000000,175.971069 
	C1.000000,172.280869 1.000000,168.619614 1.449697,164.623474 
	C96.616302,164.307190 191.333206,164.326828 286.050110,164.330078 
	C287.033417,164.330124 288.016693,164.114792 289.000000,164.000000 
z"/>
<path fill="#FDFAFA" opacity="1.000000" stroke="none" 
	d="
M1.000000,141.000000 
	C1.000000,137.307098 1.000000,133.614182 1.464975,129.524048 
	C96.624352,129.133041 191.318756,129.139679 286.013153,129.139389 
	C287.008759,129.139389 288.004395,129.048477 289.000000,129.000000 
	C289.000000,132.692902 289.000000,136.385818 288.751556,140.551178 
	C288.503113,141.023651 288.025116,141.161469 287.561768,141.086487 
	C193.219925,141.005142 99.341408,140.998138 5.462889,140.999374 
	C4.301802,140.999390 3.140717,141.105103 1.739336,141.093109 
	C1.499042,141.024750 1.000000,141.000000 1.000000,141.000000 
z"/>
<path fill="#FDF8F9" opacity="1.000000" stroke="none" 
	d="
M289.000000,106.000000 
	C289.000000,109.692909 289.000000,113.385818 288.535339,117.473129 
	C193.375824,117.860947 98.680946,117.853897 3.986063,117.854088 
	C2.990708,117.854088 1.995354,117.949257 1.000000,118.000000 
	C1.000000,114.307091 1.000000,110.614182 1.468630,106.455177 
	C97.624840,105.992722 193.312424,105.996361 289.000000,106.000000 
z"/>
<path fill="#BE1035" opacity="1.000000" stroke="none" 
	d="
M289.000000,105.539368 
	C193.312424,105.996361 97.624840,105.992722 1.468630,105.994537 
	C1.000000,102.307091 1.000000,98.614182 1.000000,94.460632 
	C31.107927,94.055656 61.215839,94.125542 91.323792,94.160492 
	C104.798363,94.176140 118.273018,94.121727 132.677307,94.160950 
	C184.414017,94.235107 235.221069,94.248917 286.028107,94.248901 
	C287.018738,94.248901 288.009369,94.086578 289.000000,94.000000 
	C289.000000,97.692909 289.000000,101.385818 289.000000,105.539368 
z"/>
<path fill="#BF0A30" opacity="1.000000" stroke="none" 
	d="
M1.979631,141.161469 
	C3.140717,141.105103 4.301802,140.999390 5.462889,140.999374 
	C99.341408,140.998138 193.219925,141.005142 287.676270,141.276184 
	C288.455963,141.769775 288.704620,141.922836 289.000000,142.000000 
	C289.000000,145.361420 289.000000,148.722855 288.550293,152.397812 
	C193.383698,152.692764 98.666794,152.673126 3.949882,152.669876 
	C2.966592,152.669846 1.983294,152.885208 1.000000,153.000000 
	C1.000000,149.638580 1.000000,146.277145 1.204477,142.371246 
	C1.670612,141.666275 1.860837,141.444504 1.979631,141.161469 
z"/>
<path fill="#FFFFFF" opacity="1.000000" stroke="none" 
	d="
M1.000000,153.458069 
	C1.983294,152.885208 2.966592,152.669846 3.949882,152.669876 
	C98.666794,152.673126 193.383698,152.692764 288.550293,152.855682 
	C289.000000,156.361282 289.000000,159.722580 289.000000,163.541931 
	C288.016693,164.114792 287.033417,164.330124 286.050110,164.330078 
	C191.333206,164.326828 96.616302,164.307190 1.449697,164.144302 
	C1.000000,160.638718 1.000000,157.277420 1.000000,153.458069 
z"/>
<path fill="#BF0A30" opacity="1.000000" stroke="none" 
	d="
M289.000000,119.000000 
	C289.000000,121.700630 289.000000,124.401253 288.531342,127.550941 
	C192.375122,128.000000 96.687561,128.000000 1.000000,128.000000 
	C1.000000,125.299370 1.000000,122.598747 1.468657,119.449059 
	C97.624878,119.000000 193.312439,119.000000 289.000000,119.000000 
z"/>
<path fill="#FDF8F9" opacity="1.000000" stroke="none" 
	d="
M132.978577,70.969009 
	C132.914856,67.323509 132.851151,63.678017 133.347855,59.591099 
	C157.181778,59.150600 180.455292,59.171440 203.728790,59.147354 
	C232.152542,59.117939 260.576263,59.050816 289.000000,59.000000 
	C289.000000,62.692909 289.000000,66.385818 288.743896,70.545166 
	C288.327026,71.069252 288.166260,71.126900 287.540985,71.116135 
	C262.312866,71.040710 237.549255,71.010307 212.785675,71.033073 
	C186.529617,71.057205 160.273575,71.131851 133.765091,71.095352 
	C133.334625,70.993851 133.156586,70.981430 132.978577,70.969009 
z"/>
<path fill="#FDFAFA" opacity="1.000000" stroke="none" 
	d="
M132.963882,47.858128 
	C132.884445,44.210922 132.805008,40.563721 133.308380,36.469734 
	C185.594131,36.015301 237.297073,36.007652 289.000000,36.000000 
	C289.000000,39.692909 289.000000,43.385818 288.535034,47.475960 
	C236.367981,47.868168 184.665939,47.863148 132.963882,47.858128 
z"/>
<path fill="#BF0A30" opacity="1.000000" stroke="none" 
	d="
M132.967743,12.668527 
	C132.917603,9.077682 132.867462,5.486837 132.908661,1.447996 
	C185.000015,1.000000 237.000015,1.000000 289.000000,1.000000 
	C289.000000,4.728386 289.000000,8.385017 288.550293,12.376523 
	C236.389633,12.697107 184.678696,12.682817 132.967743,12.668527 
z"/>
<path fill="#C11135" opacity="1.000000" stroke="none" 
	d="
M289.000000,35.539364 
	C237.297073,36.007652 185.594131,36.015301 133.417694,36.023853 
	C132.900604,32.409489 132.857025,28.794226 133.359680,24.749580 
	C183.621964,24.320415 233.337967,24.324329 283.053986,24.307297 
	C285.036011,24.306618 287.018005,24.106953 289.000000,24.000000 
	C289.000000,27.692909 289.000000,31.385818 289.000000,35.539364 
z"/>
<path fill="#FFFFFF" opacity="1.000000" stroke="none" 
	d="
M289.000000,23.541931 
	C287.018005,24.106953 285.036011,24.306618 283.053986,24.307297 
	C233.337967,24.324329 183.621964,24.320415 133.435883,24.313076 
	C132.890610,20.743877 132.815384,17.181801 132.853943,13.144125 
	C184.678696,12.682817 236.389633,12.697107 288.550293,12.855699 
	C289.000000,16.361288 289.000000,19.722574 289.000000,23.541931 
z"/>
<path fill="#FFFFFF" opacity="1.000000" stroke="none" 
	d="
M289.000000,93.541931 
	C288.009369,94.086578 287.018738,94.248901 286.028107,94.248901 
	C235.221069,94.248917 184.414017,94.235107 133.122192,94.125557 
	C132.668976,90.593918 132.700562,87.159500 133.312653,83.261177 
	C178.118927,82.797195 222.344711,82.787750 266.570496,82.806168 
	C274.047028,82.809280 281.523499,82.932350 289.000000,83.000000 
	C289.000000,86.361290 289.000000,89.722572 289.000000,93.541931 
z"/>
<path fill="#BF0A30" opacity="1.000000" stroke="none" 
	d="
M134.017532,71.184433 
	C160.273575,71.131851 186.529617,71.057205 212.785675,71.033073 
	C237.549255,71.010307 262.312866,71.040710 287.660583,71.301956 
	C288.456543,71.772064 288.708313,71.919998 289.000000,72.000000 
	C289.000000,74.700012 289.000000,77.400032 288.531494,80.564148 
	C239.669067,81.031540 191.275085,81.065285 142.881195,81.013557 
	C132.657318,81.002625 134.087570,82.566216 133.990433,71.799561 
	C134.004929,71.594795 134.017532,71.184441 134.017532,71.184433 
z"/>
<path fill="#BF0A30" opacity="1.000000" stroke="none" 
	d="
M132.952606,58.009750 
	C132.903198,55.300800 132.853806,52.591850 133.351044,49.441624 
	C185.598450,49.000233 237.299225,49.000118 289.000000,49.000000 
	C289.000000,51.700012 289.000000,54.400028 288.531342,57.550018 
	C236.359314,58.003250 184.655960,58.006500 132.952606,58.009750 
z"/>
<path fill="#C52244" opacity="1.000000" stroke="none" 
	d="
M133.975937,72.004326 
	C134.087570,82.566216 132.657318,81.002625 142.881195,81.013557 
	C191.275085,81.065285 239.669067,81.031540 288.531494,81.014130 
	C289.000000,81.444443 289.000000,81.888893 289.000000,82.666672 
	C281.523499,82.932350 274.047028,82.809280 266.570496,82.806168 
	C222.344711,82.787750 178.118927,82.797195 133.421997,82.801041 
	C132.905396,79.504196 132.859940,76.203583 133.143677,72.453171 
	C133.640564,72.003693 133.808258,72.004013 133.975937,72.004326 
z"/>
<path fill="#BC0019" opacity="1.000000" stroke="none" 
	d="
M1.000000,128.250000 
	C96.687561,128.000000 192.375122,128.000000 288.531342,128.000000 
	C289.000000,128.000000 289.000000,128.500000 289.000000,128.750000 
	C288.004395,129.048477 287.008759,129.139389 286.013153,129.139389 
	C191.318756,129.139679 96.624352,129.133041 1.464975,129.063416 
	C1.000000,129.000000 1.000000,128.500000 1.000000,128.250000 
z"/>
<path fill="#BC0019" opacity="1.000000" stroke="none" 
	d="
M289.000000,118.750000 
	C193.312439,119.000000 97.624878,119.000000 1.468657,119.000000 
	C1.000000,119.000000 1.000000,118.500000 1.000000,118.250000 
	C1.995354,117.949257 2.990708,117.854088 3.986063,117.854088 
	C98.680946,117.853897 193.375824,117.860947 288.535339,117.933769 
	C289.000000,118.000000 289.000000,118.500000 289.000000,118.750000 
z"/>
<path fill="#BC0019" opacity="1.000000" stroke="none" 
	d="
M289.000000,48.750000 
	C237.299225,49.000118 185.598450,49.000233 133.425140,48.995296 
	C132.921722,48.801266 132.890839,48.612286 132.911926,48.140717 
	C184.665939,47.863148 236.367981,47.868168 288.535034,47.936592 
	C289.000000,48.000000 289.000000,48.500000 289.000000,48.750000 
z"/>
<path fill="#BC0019" opacity="1.000000" stroke="none" 
	d="
M132.906097,58.293701 
	C184.655960,58.006500 236.359314,58.003250 288.531342,58.000000 
	C289.000000,58.000000 289.000000,58.500000 289.000000,58.750000 
	C260.576263,59.050816 232.152542,59.117939 203.728790,59.147354 
	C180.455292,59.171440 157.181778,59.150600 133.435684,59.146702 
	C132.928604,58.955032 132.894089,58.766342 132.906097,58.293701 
z"/>
<path fill="#C3203F" opacity="1.000000" stroke="none" 
	d="
M289.000000,71.750000 
	C288.708313,71.919998 288.456543,71.772064 288.125092,71.370377 
	C288.166260,71.126900 288.327026,71.069252 288.743896,71.005798 
	C289.000000,71.000000 289.000000,71.500000 289.000000,71.750000 
z"/>
<path fill="#C00029" opacity="1.000000" stroke="none" 
	d="
M1.739336,141.093109 
	C1.860837,141.444504 1.670612,141.666275 1.204477,141.913376 
	C1.000000,142.000000 1.000000,141.500000 1.000000,141.250000 
	C1.000000,141.000000 1.499042,141.024750 1.739336,141.093109 
z"/>
<path fill="#C00029" opacity="1.000000" stroke="none" 
	d="
M289.000000,141.750000 
	C288.704620,141.922836 288.455963,141.769775 288.139587,141.351151 
	C288.025116,141.161469 288.503113,141.023651 288.751556,141.011826 
	C289.000000,141.000000 289.000000,141.500000 289.000000,141.750000 
z"/>
<path fill="#E3E6ED" opacity="1.000000" stroke="none" 
	d="
M33.323536,44.422421 
	C33.119774,44.016823 32.642937,43.504681 32.753361,43.221672 
	C34.320187,39.205997 34.240395,35.817108 28.944105,34.449383 
	C31.196779,30.556868 38.702648,34.772087 37.357254,26.943630 
	C39.474422,31.327734 41.368328,34.706852 46.682941,33.931789 
	C45.156921,35.246983 43.630901,36.562176 41.936192,38.022751 
	C42.479439,39.826065 43.033321,41.664688 43.826767,44.298534 
	C40.101627,42.112522 36.852402,40.351345 33.517731,44.104183 
	C33.283901,44.364113 33.323536,44.422421 33.323536,44.422421 
z"/>
<path fill="#E3E6EC" opacity="1.000000" stroke="none" 
	d="
M114.274521,40.163059 
	C112.551346,41.291988 111.161224,42.260220 109.771103,43.228455 
	C109.514259,42.973938 109.257416,42.719418 109.000572,42.464897 
	C109.673332,40.734535 110.346085,39.004173 111.072098,37.136810 
	C109.405281,35.777145 107.891655,34.542439 105.822624,32.854675 
	C110.148247,32.297371 114.313583,31.938639 114.474319,26.225044 
	C116.237465,30.420033 118.142212,33.819866 123.675827,32.494278 
	C119.838623,35.191677 117.772400,38.274647 120.643463,43.331875 
	C118.004997,41.876442 116.306290,40.939404 114.274521,40.163059 
z"/>
<path fill="#E6E8EE" opacity="1.000000" stroke="none" 
	d="
M70.514023,32.386810 
	C72.935257,30.670244 74.991196,28.954256 76.943565,27.324715 
	C77.914429,30.172966 78.788994,34.593647 85.202026,32.290596 
	C81.334030,35.383793 79.169853,38.426510 82.956215,43.935333 
	C79.833275,41.965786 78.185211,40.926399 76.428947,39.818771 
	C74.780731,40.911774 73.151154,41.992409 70.636269,43.660133 
	C72.608734,38.765678 72.975517,34.917889 67.991150,32.387390 
	C68.710342,32.387390 69.429543,32.387390 70.514023,32.386810 
z"/>
<path fill="#E8EBF0" opacity="1.000000" stroke="none" 
	d="
M75.519165,55.898121 
	C76.117401,55.445511 76.569046,55.337921 77.020699,55.230331 
	C77.433090,60.262989 80.847046,60.709358 86.294640,59.889652 
	C82.029373,63.177483 78.542900,65.818504 81.560394,70.898941 
	C79.882164,69.848129 78.203926,68.797318 76.439621,67.692619 
	C74.757980,68.799759 73.109222,69.885262 71.036423,71.249931 
	C71.346344,68.951210 72.196434,66.900810 71.682449,65.284050 
	C71.148415,63.604149 69.295349,62.343567 67.668480,60.502937 
	C70.565071,59.594269 75.267296,61.539066 75.519165,55.898121 
z"/>
<path fill="#EAEDF2" opacity="1.000000" stroke="none" 
	d="
M29.520868,60.654778 
	C33.704533,60.491100 36.989811,59.371475 38.020668,54.187054 
	C39.133846,59.090000 41.877617,61.123112 47.831917,59.892399 
	C45.164898,62.143166 43.601429,63.462616 42.014351,64.801994 
	C42.434227,66.722679 42.842106,68.588470 43.105022,69.791145 
	C39.819092,69.556236 36.700066,69.333260 33.199741,69.083023 
	C33.370068,68.146309 33.669891,66.497406 33.994484,64.712303 
	C32.515453,63.499153 31.004797,62.260063 29.520868,60.654778 
z"/>
<path fill="#E8EBF0" opacity="1.000000" stroke="none" 
	d="
M116.110703,58.070026 
	C118.413467,59.695324 120.620033,60.954773 122.948479,62.283783 
	C121.991737,63.104652 120.435081,64.440231 118.861687,65.790169 
	C119.332596,67.786362 119.774933,69.661446 120.513344,72.791595 
	C116.412766,68.326324 113.029411,68.338326 108.913376,73.400116 
	C109.817429,69.868164 110.314964,67.924400 110.868240,65.762871 
	C109.356415,64.490005 107.778824,63.161774 105.289291,61.065739 
	C110.691360,61.587299 113.869255,60.292595 114.343407,54.603512 
	C115.177994,56.152054 115.596245,56.928116 116.110703,58.070026 
z"/>
<path fill="#F0F2F6" opacity="1.000000" stroke="none" 
	d="
M94.524017,26.017618 
	C92.985214,27.076067 91.776497,27.941677 89.990425,29.220757 
	C90.657303,26.664227 91.177124,24.671442 91.748833,22.479733 
	C90.200790,21.264994 88.561554,19.978693 85.856972,17.856426 
	C91.740913,18.849463 95.067139,17.490007 95.487335,11.751413 
	C96.675240,16.602501 98.961487,19.486414 104.618874,18.171965 
	C99.965721,20.729717 98.853371,24.124720 101.251770,28.522532 
	C98.824287,27.498915 96.839203,26.661848 94.524017,26.017618 
z"/>
<path fill="#F3F4F7" opacity="1.000000" stroke="none" 
	d="
M55.654278,54.162182 
	C54.383614,54.927326 53.458668,55.475533 50.959393,56.956825 
	C53.912636,51.641331 52.676254,48.687820 48.632267,46.882870 
	C51.769218,45.011070 54.789711,43.208763 57.963425,41.315029 
	C58.192242,41.956234 58.818184,43.710274 59.550331,45.761936 
	C61.404663,45.868294 63.365730,45.980778 66.121666,46.138851 
	C64.238686,47.774689 62.756535,49.062309 61.240406,50.379444 
	C61.565018,52.078457 61.893970,53.800190 62.228630,55.551777 
	C59.951614,54.964470 57.975803,54.454857 55.654278,54.162182 
z"/>
<path fill="#EEF0F4" opacity="1.000000" stroke="none" 
	d="
M61.906002,28.101171 
	C60.480206,27.300865 59.054409,26.500559 57.365253,25.552427 
	C55.871910,26.333164 54.214375,27.199743 51.336384,28.704390 
	C54.171703,23.450623 51.844650,20.735128 48.367439,18.236208 
	C53.406239,18.995035 56.144226,16.821560 57.186127,11.169436 
	C58.209637,14.095430 58.829212,15.866665 59.561668,17.960609 
	C61.625023,17.960609 63.707790,17.960609 66.947556,17.960609 
	C64.426857,19.924725 62.794117,21.196947 61.101933,22.515486 
	C61.525070,24.011568 61.926754,25.431808 62.246025,27.342667 
	C62.163612,27.833284 61.906002,28.101171 61.906002,28.101171 
z"/>
<path fill="#EFF1F4" opacity="1.000000" stroke="none" 
	d="
M93.190521,72.489265 
	C94.098396,70.423576 94.732651,68.629196 95.578743,66.235489 
	C96.576897,68.800812 97.345345,70.775787 98.210129,72.998337 
	C100.155609,72.998337 102.092293,72.998337 105.390579,72.998337 
	C100.754501,75.572380 98.259338,78.147301 101.820122,83.741295 
	C98.759590,82.004082 97.141968,81.085892 95.479935,80.142494 
	C93.854233,81.269096 92.220673,82.401146 89.954041,83.971916 
	C90.647377,81.447685 91.174706,79.527863 91.775391,77.340981 
	C90.312729,76.157166 88.692169,74.845551 86.654556,73.196388 
	C89.096588,73.026436 91.006744,72.893509 93.190521,72.489265 
z"/>
<path fill="#F2F4F7" opacity="1.000000" stroke="none" 
	d="
M92.554214,45.864658 
	C93.789909,43.835720 94.651245,41.897888 95.654976,39.639721 
	C96.497208,41.751842 97.275208,43.702885 98.119270,45.819603 
	C100.067177,45.910770 102.030914,46.002682 104.611450,46.123459 
	C101.545929,48.907055 97.146690,50.919830 100.343765,56.019188 
	C98.815498,55.112602 97.287231,54.206017 95.622108,53.218243 
	C93.931190,54.324177 92.182152,55.468132 89.929855,56.941235 
	C90.645477,54.417736 91.212898,52.416843 91.809265,50.313904 
	C90.195343,49.090973 88.637093,47.910225 86.057762,45.955761 
	C88.791443,45.955761 90.485649,45.955761 92.554214,45.864658 
z"/>
<path fill="#F4F5F8" opacity="1.000000" stroke="none" 
	d="
M19.601227,41.174675 
	C20.215328,42.899776 20.667557,44.316788 21.181232,45.926338 
	C23.206829,45.926338 25.183491,45.926338 28.754801,45.926338 
	C23.256126,48.630417 21.827219,51.902622 25.034586,57.438904 
	C22.118822,55.442711 20.487909,54.326153 18.875795,53.222462 
	C17.110056,54.288506 15.484976,55.269627 12.882545,56.840813 
	C13.792876,54.027412 14.356200,52.286446 14.976344,50.369877 
	C13.457854,49.182789 11.920527,47.980976 9.645254,46.202267 
	C12.374156,46.043701 14.378640,45.927231 15.634629,45.854248 
	C17.164684,43.848484 18.302021,42.357536 19.601227,41.174675 
z"/>
<path fill="#EFF1F5" opacity="1.000000" stroke="none" 
	d="
M13.581945,28.570993 
	C13.998417,26.975477 14.414888,25.379959 14.914084,23.467524 
	C13.457646,22.311941 11.839122,21.027758 9.475557,19.152435 
	C12.295528,19.152435 14.185127,19.152435 16.280720,19.152435 
	C17.068575,16.964907 17.771404,15.013454 18.668945,12.521380 
	C19.647144,14.894927 20.447573,16.837126 21.335777,18.992306 
	C23.306541,18.992306 25.267868,18.992306 28.939785,18.992306 
	C23.101957,21.676376 22.011824,25.102375 24.864828,30.442532 
	C22.202879,28.602663 20.654787,27.532660 18.840319,26.278547 
	C17.494822,27.183554 16.160999,28.080706 14.332579,28.904552 
	C13.837981,28.831247 13.581945,28.570993 13.581945,28.570993 
z"/>
<path fill="#F3F4F7" opacity="1.000000" stroke="none" 
	d="
M13.989995,72.974319 
	C15.936225,71.191429 17.483599,69.409294 19.136753,67.505325 
	C19.672071,68.811592 20.487452,70.801262 21.415602,73.066101 
	C23.336647,73.066101 25.241163,73.066101 27.145679,73.066101 
	C23.398975,75.494492 21.840494,78.406418 24.783325,83.724297 
	C22.052795,82.090149 20.588669,81.213913 18.877289,80.189697 
	C17.251104,81.132706 15.501595,82.147224 12.814347,83.705528 
	C13.794427,80.917328 14.409944,79.166260 15.074175,77.276604 
	C13.394537,76.017326 11.849628,74.859055 9.336745,72.975067 
	C11.494031,72.975067 12.542584,72.975067 13.989995,72.974319 
z"/>
<path fill="#F3F4F7" opacity="1.000000" stroke="none" 
	d="
M62.000397,82.992828 
	C60.461319,82.071037 58.922245,81.149239 57.268204,80.158592 
	C55.654842,81.142601 53.985199,82.160942 52.030907,82.973007 
	C51.746262,82.766739 51.784805,82.812241 51.784805,82.812241 
	C53.728172,78.823341 53.189331,75.598473 47.317913,73.227325 
	C50.608337,73.227325 52.322693,73.227325 54.421452,73.227325 
	C55.332100,71.104958 56.197678,69.087631 57.507469,66.035019 
	C58.230495,71.598709 60.354473,74.320251 65.753708,73.464897 
	C64.241562,74.741287 62.729412,76.017670 61.107586,77.386627 
	C61.618206,79.124977 62.126331,80.854828 62.299160,82.819214 
	C61.963867,83.053757 62.000397,82.992828 62.000397,82.992828 
z"/>
<path fill="#F3F4F7" opacity="1.000000" stroke="none" 
	d="
M61.948463,83.085754 
	C62.180225,83.075638 62.427399,83.033524 62.674568,82.991409 
	C62.524170,83.126343 62.373775,83.261284 62.111889,83.194527 
	C62.000397,82.992828 61.963867,83.053757 61.948463,83.085754 
z"/>
<path fill="#F3F4F7" opacity="1.000000" stroke="none" 
	d="
M51.720657,82.751465 
	C51.695053,82.736198 51.939938,83.117264 51.939938,83.117264 
	C51.939938,83.117264 51.841164,83.044380 51.812984,82.928314 
	C51.784805,82.812241 51.746262,82.766739 51.720657,82.751465 
z"/>
<path fill="#E3E6ED" opacity="1.000000" stroke="none" 
	d="
M33.284676,44.398605 
	C33.204945,44.372845 33.124439,44.312599 33.183735,44.337387 
	C33.323536,44.422421 33.283901,44.364113 33.284676,44.398605 
z"/>
<path fill="#EFF1F5" opacity="1.000000" stroke="none" 
	d="
M13.963878,28.963428 
	C13.850021,29.291695 13.610269,29.487778 13.370516,29.683863 
	C13.329921,29.440718 13.289326,29.197575 13.415339,28.762711 
	C13.581945,28.570993 13.837981,28.831247 13.963878,28.963428 
z"/>
<path fill="#C3203F" opacity="1.000000" stroke="none" 
	d="
M133.990433,71.799561 
	C133.808258,72.004013 133.640564,72.003693 133.220978,72.003983 
	C132.940857,71.831787 132.912643,71.658981 132.931503,71.227592 
	C133.156586,70.981430 133.334625,70.993851 133.765091,71.095352 
	C134.017532,71.184441 134.004929,71.594795 133.990433,71.799561 
z"/>
<path fill="#EEF0F4" opacity="1.000000" stroke="none" 
	d="
M62.295395,27.702271 
	C62.519901,27.919167 62.612629,28.267076 62.705360,28.614986 
	C62.489834,28.605844 62.274307,28.596704 61.982391,28.344368 
	C61.906002,28.101171 62.163612,27.833284 62.295395,27.702271 
z"/>
</svg>