<svg version="1.1" id="Layer_1" xmlns="http://www.w3.org/2000/svg" xmlns:xlink="http://www.w3.org/1999/xlink" x="0px" y="0px"
	 width="100%" viewBox="0 0 318 159" enable-background="new 0 0 318 159" xml:space="preserve">
<path fill="#F6D800" opacity="1.000000" stroke="none" 
	d="
M32.000000,160.000000 
	C21.764977,160.000000 11.529954,160.000000 1.000000,160.000000 
	C1.000000,154.984604 1.000000,149.963501 1.217848,144.847031 
	C33.921417,128.550659 66.407928,112.351257 98.892395,96.147736 
	C109.199303,91.006569 119.500771,85.854485 130.232346,80.493782 
	C87.601753,59.176380 45.500820,38.118767 3.377118,17.106802 
	C2.728399,16.783211 1.798616,17.023085 1.000000,17.000000 
	C1.000000,11.716825 1.000000,6.433650 1.000000,1.000000 
	C11.020496,1.000000 21.041592,1.000000 31.645802,1.331176 
	C73.693970,22.431118 115.176811,43.164593 156.587524,64.041130 
	C159.631149,65.575523 161.833191,64.764885 164.456680,63.450237 
	C200.716660,45.280151 237.016129,27.188906 273.275055,9.016749 
	C278.268402,6.514194 283.095795,3.680422 288.000000,0.999999 
	C298.235016,1.000000 308.470062,1.000000 319.000000,1.000000 
	C319.000000,6.015390 319.000000,11.036497 318.782288,16.152889 
	C286.078888,32.449165 253.592529,48.648701 221.108032,64.851982 
	C210.800812,69.993225 200.498550,75.144440 189.765488,80.505135 
	C232.397247,101.823128 274.498688,122.880981 316.622864,143.893173 
	C317.271576,144.216766 318.201385,143.976913 319.000000,144.000000 
	C319.000000,149.283173 319.000000,154.566345 319.000000,160.000000 
	C308.979492,160.000000 298.958405,160.000000 288.354187,159.668823 
	C246.306030,138.568878 204.823196,117.835396 163.412476,96.958855 
	C160.368866,95.424469 158.166824,96.235123 155.543335,97.549767 
	C119.283363,115.719864 82.983894,133.811127 46.724953,151.983261 
	C41.731594,154.485825 36.904221,157.319580 32.000000,160.000000 
z"/>
<path fill="#308A2A" opacity="1.000000" stroke="none" 
	d="
M287.533020,0.999999 
	C283.095795,3.680422 278.268402,6.514194 273.275055,9.016749 
	C237.016129,27.188906 200.716660,45.280151 164.456680,63.450237 
	C161.833191,64.764885 159.631149,65.575523 156.587524,64.041130 
	C115.176811,43.164593 73.693970,22.431118 32.114456,1.331176 
	C117.022011,1.000000 202.044022,1.000000 287.533020,0.999999 
z"/>
<path fill="#308A2A" opacity="1.000000" stroke="none" 
	d="
M32.466984,160.000000 
	C36.904221,157.319580 41.731594,154.485825 46.724953,151.983261 
	C82.983894,133.811127 119.283363,115.719864 155.543335,97.549767 
	C158.166824,96.235123 160.368866,95.424469 163.412476,96.958855 
	C204.823196,117.835396 246.306030,138.568878 287.885559,159.668823 
	C202.977997,160.000000 117.955978,160.000000 32.466984,160.000000 
z"/>
<path fill="#000000" opacity="1.000000" stroke="none" 
	d="
M1.000000,17.468658 
	C1.798616,17.023085 2.728399,16.783211 3.377118,17.106802 
	C45.500820,38.118767 87.601753,59.176380 130.232346,80.493782 
	C119.500771,85.854485 109.199303,91.006569 98.892395,96.147736 
	C66.407928,112.351257 33.921417,128.550659 1.217848,144.375824 
	C1.000000,101.979103 1.000000,59.958210 1.000000,17.468658 
z"/>
<path fill="#000000" opacity="1.000000" stroke="none" 
	d="
M319.000000,143.531342 
	C318.201385,143.976913 317.271576,144.216766 316.622864,143.893173 
	C274.498688,122.880981 232.397247,101.823128 189.765488,80.505135 
	C200.498550,75.144440 210.800812,69.993225 221.108032,64.851982 
	C253.592529,48.648701 286.078888,32.449165 318.782288,16.624088 
	C319.000000,59.020893 319.000000,101.041786 319.000000,143.531342 
z"/>
</svg>