<svg version="1.1" id="Layer_1" xmlns="http://www.w3.org/2000/svg" xmlns:xlink="http://www.w3.org/1999/xlink" x="0px" y="0px"
	 width="100%" viewBox="0 0 275 183" enable-background="new 0 0 275 183" xml:space="preserve">
<path fill="#E91939" opacity="1.000000" stroke="none" 
	d="
M275.000000,184.000000 
	C183.721329,184.000000 92.442665,184.000000 1.082001,184.000000 
	C1.082001,123.091278 1.082001,62.182407 1.082001,1.000000 
	C92.020714,1.000000 183.041702,1.000000 274.533630,1.292418 
	C275.336395,1.723226 275.668213,1.861616 276.000000,2.000003 
	C276.000000,62.020893 276.000000,122.041786 275.707489,182.530212 
	C275.276642,183.331818 275.138336,183.665909 275.000000,184.000000 
M165.294128,91.728279 
	C168.221237,89.547722 171.148361,87.367157 174.075470,85.186592 
	C166.054489,84.297020 158.574493,84.164566 151.103180,84.361336 
	C148.057098,84.441559 146.739227,83.335396 145.883896,80.452698 
	C143.716263,73.147156 141.191162,65.947670 138.495956,57.753269 
	C135.900711,65.640594 133.384537,72.506729 131.435104,79.530174 
	C130.406509,83.236023 128.748917,84.570641 124.859390,84.392868 
	C117.661034,84.063850 110.436913,84.298714 103.223518,84.298714 
	C108.869064,89.633064 114.615921,94.124710 120.689209,98.120163 
	C123.823738,100.182297 124.214264,102.142967 122.985031,105.499214 
	C120.464668,112.380722 118.396530,119.427849 115.764793,127.575195 
	C124.011192,121.623505 131.151016,116.470474 138.463821,111.192581 
	C145.801590,116.467346 153.033112,121.665749 161.170700,127.515472 
	C159.577530,122.502884 158.271927,118.590187 157.094467,114.639297 
	C155.728806,110.056938 152.460205,104.749214 153.735931,101.032684 
	C155.032883,97.254333 160.857056,95.029968 165.294128,91.728279 
z"/>
<path fill="#841325" opacity="1.000000" stroke="none" 
	d="
M276.000000,1.500003 
	C275.668213,1.861616 275.336395,1.723226 275.002319,1.292418 
	C275.333344,1.000000 275.666656,1.000000 276.000000,1.500003 
z"/>
<path fill="#841325" opacity="1.000000" stroke="none" 
	d="
M275.500000,184.000000 
	C275.138336,183.665909 275.276642,183.331818 275.707489,182.998871 
	C276.000000,183.333328 276.000000,183.666672 275.500000,184.000000 
z"/>
<path fill="#186B48" opacity="1.000000" stroke="none" 
	d="
M164.996429,91.926697 
	C160.857056,95.029968 155.032883,97.254333 153.735931,101.032684 
	C152.460205,104.749214 155.728806,110.056938 157.094467,114.639297 
	C158.271927,118.590187 159.577530,122.502884 161.170700,127.515472 
	C153.033112,121.665749 145.801590,116.467346 138.463821,111.192581 
	C131.151016,116.470474 124.011192,121.623505 115.764793,127.575195 
	C118.396530,119.427849 120.464668,112.380722 122.985031,105.499214 
	C124.214264,102.142967 123.823738,100.182297 120.689209,98.120163 
	C114.615921,94.124710 108.869064,89.633064 103.223518,84.298714 
	C110.436913,84.298714 117.661034,84.063850 124.859390,84.392868 
	C128.748917,84.570641 130.406509,83.236023 131.435104,79.530174 
	C133.384537,72.506729 135.900711,65.640594 138.495956,57.753269 
	C141.191162,65.947670 143.716263,73.147156 145.883896,80.452698 
	C146.739227,83.335396 148.057098,84.441559 151.103180,84.361336 
	C158.574493,84.164566 166.054489,84.297020 174.075470,85.186592 
	C171.148361,87.367157 168.221237,89.547722 164.996429,91.926697 
M155.024292,119.598709 
	C155.129776,119.287239 155.235260,118.975769 155.200516,117.919472 
	C153.623505,112.958420 152.046494,107.997368 150.309494,102.533058 
	C146.789734,105.112411 143.955933,107.189079 140.666534,109.599609 
	C145.783356,113.092506 150.281143,116.162849 155.024292,119.598709 
M130.190598,91.677788 
	C127.097412,101.248825 127.287621,101.595390 138.937119,107.445679 
	C141.571915,105.552956 144.332550,103.710350 146.911301,101.641075 
	C147.812775,100.917709 149.000916,99.452400 148.798096,98.640800 
	C147.879578,94.965248 147.200119,90.876328 145.018692,88.016090 
	C143.892807,86.539833 139.810211,87.312630 137.062256,87.084877 
	C136.568222,87.043938 136.053513,87.156395 135.572754,87.066948 
	C132.456863,86.487297 130.937134,88.004684 130.190598,91.677788 
M153.534058,96.926048 
	C157.684067,93.877708 161.834061,90.829369 166.741974,87.224327 
	C159.920883,87.224327 154.326660,87.224327 147.401779,87.224327 
	C149.491089,91.028023 151.213593,94.163956 153.534058,96.926048 
M116.023758,87.057938 
	C114.464615,87.057938 112.905464,87.057938 109.855431,87.057938 
	C115.743553,91.314804 120.323814,94.626137 125.314285,98.234032 
	C126.582024,94.140579 127.595177,90.869164 128.775360,87.058426 
	C124.441711,87.058426 120.663544,87.058426 116.023758,87.057938 
M133.121567,107.209702 
	C131.129501,105.808220 129.137436,104.406738 126.667549,102.669098 
	C124.760010,108.567230 123.022354,113.940094 120.861115,120.622673 
	C126.613953,116.430061 131.209930,113.080559 136.042084,109.558937 
	C134.940796,108.664558 134.304535,108.147835 133.121567,107.209702 
M142.677170,78.950989 
	C141.383255,75.181862 140.089355,71.412735 138.409821,66.520294 
	C136.319046,73.006554 134.614304,78.295250 132.796021,83.936172 
	C136.778061,83.936172 140.253525,83.936172 144.059784,83.936172 
	C143.586319,82.235405 143.238144,80.984703 142.677170,78.950989 
z"/>
<path fill="#E41B39" opacity="1.000000" stroke="none" 
	d="
M130.313431,91.291153 
	C130.937134,88.004684 132.456863,86.487297 135.572754,87.066948 
	C136.053513,87.156395 136.568222,87.043938 137.062256,87.084877 
	C139.810211,87.312630 143.892807,86.539833 145.018692,88.016090 
	C147.200119,90.876328 147.879578,94.965248 148.798096,98.640800 
	C149.000916,99.452400 147.812775,100.917709 146.911301,101.641075 
	C144.332550,103.710350 141.571915,105.552956 138.937119,107.445679 
	C127.287621,101.595390 127.097412,101.248825 130.313431,91.291153 
z"/>
<path fill="#E11B3A" opacity="1.000000" stroke="none" 
	d="
M153.235077,97.112976 
	C151.213593,94.163956 149.491089,91.028023 147.401779,87.224327 
	C154.326660,87.224327 159.920883,87.224327 166.741974,87.224327 
	C161.834061,90.829369 157.684067,93.877708 153.235077,97.112976 
z"/>
<path fill="#DC1E3A" opacity="1.000000" stroke="none" 
	d="
M116.454567,87.058182 
	C120.663544,87.058426 124.441711,87.058426 128.775360,87.058426 
	C127.595177,90.869164 126.582024,94.140579 125.314285,98.234032 
	C120.323814,94.626137 115.743553,91.314804 109.855431,87.057938 
	C112.905464,87.057938 114.464615,87.057938 116.454567,87.058182 
z"/>
<path fill="#DD1D3A" opacity="1.000000" stroke="none" 
	d="
M133.394928,107.420410 
	C134.304535,108.147835 134.940796,108.664558 136.042084,109.558937 
	C131.209930,113.080559 126.613953,116.430061 120.861115,120.622673 
	C123.022354,113.940094 124.760010,108.567230 126.667549,102.669098 
	C129.137436,104.406738 131.129501,105.808220 133.394928,107.420410 
z"/>
<path fill="#DC1E3A" opacity="1.000000" stroke="none" 
	d="
M154.778946,119.233192 
	C150.281143,116.162849 145.783356,113.092506 140.666534,109.599609 
	C143.955933,107.189079 146.789734,105.112411 150.309494,102.533058 
	C152.046494,107.997368 153.623505,112.958420 155.129944,118.433868 
	C155.059357,118.948265 154.778946,119.233192 154.778946,119.233192 
z"/>
<path fill="#DE1D3A" opacity="1.000000" stroke="none" 
	d="
M142.783569,79.342491 
	C143.238144,80.984703 143.586319,82.235405 144.059784,83.936172 
	C140.253525,83.936172 136.778061,83.936172 132.796021,83.936172 
	C134.614304,78.295250 136.319046,73.006554 138.409821,66.520294 
	C140.089355,71.412735 141.383255,75.181862 142.783569,79.342491 
z"/>
<path fill="#DC1E3A" opacity="1.000000" stroke="none" 
	d="
M155.200058,118.806274 
	C155.235260,118.975769 155.129776,119.287239 154.901611,119.415955 
	C154.778946,119.233192 155.059357,118.948265 155.200058,118.806274 
z"/>
</svg>