<svg version="1.1" id="Layer_1" xmlns="http://www.w3.org/2000/svg" xmlns:xlink="http://www.w3.org/1999/xlink" x="0px" y="0px"
	 width="100%" viewBox="0 0 220 132" enable-background="new 0 0 220 132" xml:space="preserve">
<path fill="#C8102E" opacity="1.000000" stroke="none" 
	d="
M98.000000,1.000000 
	C106.354233,1.000000 114.708466,1.000000 123.581802,1.466309 
	C124.100899,19.144482 124.100899,36.356346 124.100899,54.000000 
	C156.888885,54.000000 188.944443,54.000000 221.000000,54.000000 
	C221.000000,62.354233 221.000000,70.708466 220.533691,79.581802 
	C188.218185,80.100899 156.368973,80.100899 124.000000,80.100899 
	C124.000000,98.164818 124.000000,115.582405 124.000000,133.000000 
	C115.645767,133.000000 107.291534,133.000000 98.418640,132.533661 
	C97.899971,114.855270 97.899971,97.643234 97.899971,80.000000 
	C65.111755,80.000000 33.055878,80.000000 1.000000,80.000000 
	C1.000000,71.645767 1.000000,63.291538 1.466349,54.418633 
	C33.782188,53.899963 65.631676,53.899963 98.000000,53.899963 
	C98.000000,35.835602 98.000000,18.417801 98.000000,1.000000 
z"/>
<path fill="#FDFCFC" opacity="1.000000" stroke="none" 
	d="
M97.550018,1.000000 
	C98.000000,18.417801 98.000000,35.835602 98.000000,53.899963 
	C65.631676,53.899963 33.782188,53.899963 1.466349,53.949982 
	C1.000000,51.299988 1.000000,48.599972 1.468657,45.449806 
	C17.000429,44.999657 32.063545,44.999657 47.126659,44.999657 
	C35.945385,37.321148 24.746124,30.557949 13.487796,23.894548 
	C9.397742,21.473795 5.166709,19.291239 1.000000,17.000000 
	C1.000000,11.721546 1.000000,6.443092 1.000000,1.000000 
	C9.687025,1.000000 18.374851,1.000000 27.521820,1.355368 
	C48.092213,13.809782 68.203461,25.908829 89.000000,38.420151 
	C89.000000,25.414104 89.000000,13.207052 89.000000,1.000000 
	C91.700012,1.000000 94.400032,1.000000 97.550018,1.000000 
z"/>
<path fill="#FDFCFC" opacity="1.000000" stroke="none" 
	d="
M1.000000,80.449982 
	C33.055878,80.000000 65.111755,80.000000 97.899971,80.000000 
	C97.899971,97.643234 97.899971,114.855270 97.949982,132.533661 
	C95.299988,133.000000 92.599968,133.000000 89.448471,132.531342 
	C88.996979,120.163651 88.996979,108.264618 88.996979,95.741882 
	C87.824417,96.379532 87.273186,96.653717 86.746765,96.969261 
	C67.796524,108.328094 48.844501,119.683952 29.915459,131.077988 
	C29.163706,131.530502 28.633461,132.350983 28.000002,133.000000 
	C19.093683,133.000000 10.187368,133.000000 1.000000,133.000000 
	C1.000000,127.984261 1.000000,122.963326 1.359607,117.507843 
	C16.926773,108.007324 32.134335,98.941345 47.341896,89.875374 
	C47.188759,89.583580 47.035622,89.291794 46.882484,89.000000 
	C31.588322,89.000000 16.294161,89.000000 1.000000,89.000000 
	C1.000000,86.299988 1.000000,83.599968 1.000000,80.449982 
z"/>
<path fill="#FEFCFD" opacity="1.000000" stroke="none" 
	d="
M221.000000,53.550018 
	C188.944443,54.000000 156.888885,54.000000 124.100899,54.000000 
	C124.100899,36.356346 124.100899,19.144482 124.050446,1.466309 
	C126.700012,1.000000 129.400024,1.000000 132.550323,1.468657 
	C133.000595,13.847695 133.000595,25.758078 133.000595,38.562019 
	C154.162369,25.741268 174.581177,13.370631 195.000000,0.999998 
	C203.574280,1.000000 212.148560,1.000000 221.000000,1.000000 
	C221.000000,6.015837 221.000000,11.036720 220.640640,16.494417 
	C205.095459,26.004850 189.909637,35.078468 174.723816,44.152088 
	C174.871719,44.434723 175.019638,44.717361 175.167557,45.000000 
	C190.445038,45.000000 205.722519,45.000000 221.000000,45.000000 
	C221.000000,47.700012 221.000000,50.400028 221.000000,53.550018 
z"/>
<path fill="#FEFCFD" opacity="1.000000" stroke="none" 
	d="
M124.449982,133.000000 
	C124.000000,115.582405 124.000000,98.164818 124.000000,80.100899 
	C156.368973,80.100899 188.218185,80.100899 220.533691,80.050446 
	C221.000000,82.700012 221.000000,85.400032 220.531342,88.549393 
	C205.025925,88.998734 189.989166,88.998734 174.952408,88.998734 
	C184.599319,95.750816 194.360794,101.680634 204.193817,107.489319 
	C209.734970,110.762665 215.394043,113.836357 221.000000,117.000000 
	C221.000000,122.277130 221.000000,127.554260 221.000000,133.000000 
	C212.646347,133.000000 204.291840,133.000000 195.247620,132.741699 
	C174.264343,120.312454 153.970749,108.141510 133.000000,95.564438 
	C133.000000,108.558975 133.000000,120.779488 133.000000,133.000000 
	C130.299988,133.000000 127.599968,133.000000 124.449982,133.000000 
z"/>
<path fill="#03236A" opacity="1.000000" stroke="none" 
	d="
M194.531342,0.999998 
	C174.581177,13.370631 154.162369,25.741268 133.000595,38.562019 
	C133.000595,25.758078 133.000595,13.847695 133.000305,1.468657 
	C153.354233,1.000000 173.708450,1.000000 194.531342,0.999998 
z"/>
<path fill="#03236A" opacity="1.000000" stroke="none" 
	d="
M133.468658,133.000000 
	C133.000000,120.779488 133.000000,108.558975 133.000000,95.564438 
	C153.970749,108.141510 174.264343,120.312454 194.778961,132.741699 
	C174.645767,133.000000 154.291550,133.000000 133.468658,133.000000 
z"/>
<path fill="#02226A" opacity="1.000000" stroke="none" 
	d="
M88.531342,1.000000 
	C89.000000,13.207052 89.000000,25.414104 89.000000,38.420151 
	C68.203461,25.908829 48.092213,13.809782 27.990482,1.355368 
	C48.020893,1.000000 68.041786,1.000000 88.531342,1.000000 
z"/>
<path fill="#02226A" opacity="1.000000" stroke="none" 
	d="
M28.468658,133.000000 
	C28.633461,132.350983 29.163706,131.530502 29.915459,131.077988 
	C48.844501,119.683952 67.796524,108.328094 86.746765,96.969261 
	C87.273186,96.653717 87.824417,96.379532 88.996979,95.741882 
	C88.996979,108.264618 88.996979,120.163651 88.998489,132.531342 
	C68.979103,133.000000 48.958210,133.000000 28.468658,133.000000 
z"/>
<path fill="#04236B" opacity="1.000000" stroke="none" 
	d="
M1.000000,17.468657 
	C5.166709,19.291239 9.397742,21.473795 13.487796,23.894548 
	C24.746124,30.557949 35.945385,37.321148 47.126659,44.999657 
	C32.063545,44.999657 17.000429,44.999657 1.468657,44.999828 
	C1.000000,35.979103 1.000000,26.958208 1.000000,17.468657 
z"/>
<path fill="#04246B" opacity="1.000000" stroke="none" 
	d="
M221.000000,44.531342 
	C205.722519,45.000000 190.445038,45.000000 175.167557,45.000000 
	C175.019638,44.717361 174.871719,44.434723 174.723816,44.152088 
	C189.909637,35.078468 205.095459,26.004850 220.640640,16.965614 
	C221.000000,26.020895 221.000000,35.041790 221.000000,44.531342 
z"/>
<path fill="#04236B" opacity="1.000000" stroke="none" 
	d="
M1.000000,89.468658 
	C16.294161,89.000000 31.588322,89.000000 46.882484,89.000000 
	C47.035622,89.291794 47.188759,89.583580 47.341896,89.875374 
	C32.134335,98.941345 16.926773,108.007324 1.359607,117.036652 
	C1.000000,107.979103 1.000000,98.958214 1.000000,89.468658 
z"/>
<path fill="#04246B" opacity="1.000000" stroke="none" 
	d="
M221.000000,116.531342 
	C215.394043,113.836357 209.734970,110.762665 204.193817,107.489319 
	C194.360794,101.680634 184.599319,95.750816 174.952408,88.998734 
	C189.989166,88.998734 205.025925,88.998734 220.531342,88.999367 
	C221.000000,98.020897 221.000000,107.041786 221.000000,116.531342 
z"/>
</svg>