<svg version="1.1" id="Layer_1" xmlns="http://www.w3.org/2000/svg" xmlns:xlink="http://www.w3.org/1999/xlink" x="0px" y="0px"
	 width="100%" viewBox="0 0 303 166" enable-background="new 0 0 303 166" xml:space="preserve">
<path fill="#001B9A" opacity="1.000000" stroke="none" 
	d="
M304.000000,57.000000 
	C304.000000,74.354225 304.000000,91.708458 303.532166,109.531342 
	C202.376205,110.000000 101.688103,110.000000 1.000000,110.000000 
	C1.000000,92.979103 1.000000,75.958214 1.468657,58.468658 
	C101.989349,57.986752 202.041382,57.973503 302.351685,57.879250 
	C303.073273,57.532166 303.536652,57.266083 304.000000,57.000000 
z"/>
<path fill="#E70000" opacity="1.000000" stroke="none" 
	d="
M1.000000,29.000000 
	C1.000000,19.678053 1.000000,10.356104 1.000003,1.040982 
	C102.000008,1.047807 203.000015,1.047807 304.000000,1.047807 
	C304.000000,10.084637 304.000000,19.073660 303.549957,28.390118 
	C203.384018,28.701385 103.668129,28.684263 3.952237,28.682768 
	C2.968160,28.682753 1.984079,28.889683 1.000000,29.000000 
z"/>
<path fill="#E70000" opacity="1.000000" stroke="none" 
	d="
M304.000000,139.000000 
	C304.000000,148.321945 304.000000,157.643906 304.000000,166.959015 
	C202.999985,166.952164 101.999985,166.952164 1.000000,166.952164 
	C1.000000,157.915329 1.000000,148.926315 1.450040,139.609894 
	C101.615974,139.298630 201.331863,139.315735 301.047760,139.317215 
	C302.031830,139.317230 303.015930,139.110321 304.000000,139.000000 
z"/>
<path fill="#FFFFFF" opacity="1.000000" stroke="none" 
	d="
M1.000000,29.468657 
	C1.984079,28.889683 2.968160,28.682753 3.952237,28.682768 
	C103.668129,28.684263 203.384018,28.701385 303.549957,28.858776 
	C304.000000,37.687565 304.000000,46.375126 303.615234,55.540527 
	C302.742035,56.150639 302.253540,56.282913 301.311951,56.397530 
	C202.886597,56.377747 104.914406,56.377811 6.942216,56.357922 
	C4.961453,56.357521 2.980737,56.124496 1.000000,56.000000 
	C1.000000,47.312439 1.000000,38.624874 1.000000,29.468657 
z"/>
<path fill="#FFFFFF" opacity="1.000000" stroke="none" 
	d="
M304.000000,138.531342 
	C303.015930,139.110321 302.031830,139.317230 301.047760,139.317215 
	C201.331863,139.315735 101.615974,139.298630 1.450040,139.141235 
	C1.000000,130.312439 1.000000,121.624870 1.444447,112.310013 
	C101.612411,111.664444 201.335938,111.645096 301.059448,111.643311 
	C302.039642,111.643295 303.019806,111.875961 304.000000,112.000000 
	C304.000000,120.687569 304.000000,129.375137 304.000000,138.531342 
z"/>
<path fill="#000B97" opacity="1.000000" stroke="none" 
	d="
M304.000000,111.666664 
	C303.019806,111.875961 302.039642,111.643295 301.059448,111.643311 
	C201.335938,111.645096 101.612411,111.664444 1.444447,111.841362 
	C1.000000,111.555557 1.000000,111.111115 1.000000,110.333336 
	C101.688103,110.000000 202.376205,110.000000 303.532166,110.000000 
	C304.000000,110.444443 304.000000,110.888885 304.000000,111.666664 
z"/>
<path fill="#000B97" opacity="1.000000" stroke="none" 
	d="
M1.000000,56.333332 
	C2.980737,56.124496 4.961453,56.357521 6.942216,56.357922 
	C104.914406,56.377811 202.886597,56.377747 301.315369,56.663857 
	C301.879089,57.285313 301.986267,57.622784 302.093414,57.960255 
	C202.041382,57.973503 101.989349,57.986752 1.468657,58.000000 
	C1.000000,57.555553 1.000000,57.111111 1.000000,56.333332 
z"/>
<path fill="#7075B9" opacity="1.000000" stroke="none" 
	d="
M302.351685,57.879250 
	C301.986267,57.622784 301.879089,57.285313 301.768494,56.681511 
	C302.253540,56.282913 302.742035,56.150639 303.615234,56.009186 
	C304.000000,56.000000 304.000000,56.500000 304.000000,56.750000 
	C303.536652,57.266083 303.073273,57.532166 302.351685,57.879250 
z"/>
</svg>